<?xml version="1.0" encoding="UTF-8"?>
<svg xmlns="http://www.w3.org/2000/svg" xmlns:xlink="http://www.w3.org/1999/xlink" width="150px" height="150px" viewBox="0 0 150 150" version="1.1">
<g id="surface1">
<path style=" stroke:none;fill-rule:nonzero;fill:rgb(88.235295%,94.117647%,100%);fill-opacity:1;" d="M 31.464844 67.28125 C 31.464844 87.117188 47.546875 103.199219 67.382812 103.199219 C 87.21875 103.199219 103.300781 87.117188 103.300781 67.28125 C 103.300781 47.441406 87.21875 31.363281 67.382812 31.363281 C 47.546875 31.363281 31.464844 47.441406 31.464844 67.28125 Z M 31.464844 67.28125 "/>
<path style=" stroke:none;fill-rule:nonzero;fill:rgb(26.666668%,43.137255%,69.411767%);fill-opacity:1;" d="M 67.382812 105.320312 C 57.21875 105.320312 47.664062 101.367188 40.488281 94.175781 C 33.3125 86.984375 29.339844 77.429688 29.339844 67.28125 C 29.339844 57.113281 33.296875 47.5625 40.488281 40.386719 C 47.679688 33.207031 57.230469 29.238281 67.382812 29.238281 C 77.546875 29.238281 87.101562 33.191406 94.277344 40.386719 C 101.453125 47.578125 105.425781 57.128906 105.425781 67.28125 C 105.425781 77.445312 101.46875 86.996094 94.277344 94.175781 C 87.085938 101.351562 77.546875 105.320312 67.382812 105.320312 Z M 67.382812 33.484375 C 58.359375 33.484375 49.863281 37 43.492188 43.390625 C 37.105469 49.777344 33.589844 58.257812 33.589844 67.28125 C 33.589844 76.304688 37.105469 84.800781 43.492188 91.171875 C 49.863281 97.558594 58.359375 101.074219 67.382812 101.074219 C 76.40625 101.074219 84.902344 97.558594 91.273438 91.171875 C 97.660156 84.785156 101.175781 76.304688 101.175781 67.28125 C 101.175781 58.257812 97.660156 49.761719 91.273438 43.386719 C 84.902344 37 76.40625 33.484375 67.382812 33.484375 Z M 67.382812 33.484375 "/>
<path style=" stroke:none;fill-rule:nonzero;fill:rgb(26.666668%,43.137255%,69.411767%);fill-opacity:1;" d="M 93.835938 92.375 C 95.113281 91.097656 97.179688 91.097656 98.453125 92.375 L 117.480469 111.402344 C 118.742188 112.703125 118.695312 114.769531 117.40625 116.015625 C 116.148438 117.230469 114.140625 117.230469 112.867188 116.015625 L 93.835938 96.988281 C 92.609375 95.726562 92.652344 93.675781 93.835938 92.375 Z M 93.835938 92.375 "/>
</g>
</svg>
